<?xml version="1.0" encoding="utf-8"?>
<!-- Generator: Adobe Illustrator 24.0.2, SVG Export Plug-In . SVG Version: 6.00 Build 0)  -->
<svg version="1.1" id="Layer_1" xmlns="http://www.w3.org/2000/svg" xmlns:xlink="http://www.w3.org/1999/xlink" x="0px" y="0px"
	 viewBox="0 0 100 100" style="enable-background:new 0 0 100 100;" xml:space="preserve">
<style type="text/css">
	.st0{fill:#4088DA;}
	.st1{fill:#FFFFFF;}
	.st2{fill:#333333;}
</style>
<g id="certificate">
	<g>
		<path class="st0" d="M87.6,57.1l-6,5.6c-0.8,0.7-2.1,0.2-2.1-0.9V47.6c0,0,0-0.1,0-0.1c0-0.1,0-0.3,0-0.4c0-0.1,0-0.2-0.1-0.3
			c0-0.1-0.1-0.2-0.1-0.4c0-0.1-0.1-0.2-0.1-0.3c-0.1-0.1-0.1-0.2-0.2-0.3c-0.1-0.1-0.1-0.2-0.2-0.3c-0.1-0.1-0.2-0.2-0.2-0.3
			c-0.1-0.1-0.2-0.2-0.2-0.3l-0.3-0.2c-0.1-0.1-0.2-0.2-0.3-0.2c0,0-0.1-0.1-0.1-0.1l-1.1-0.6c0,0,0,0,0,0l-0.4-0.2l-0.5-0.3v0h-5
			l3.8,2.2v30.1c0.5-0.2,0.9-0.5,1.3-0.8l1.3-1.3l11.5-11.5v-3.8C87.3,57.9,88.6,56.1,87.6,57.1z"/>
		<path class="st0" d="M60.7,68.5C60.7,68.5,60.6,68.5,60.7,68.5c-0.8,0.9-1.8,1.5-2.8,1.8l3.6,7.8l1.9-5.1l5.1,1.9l-3.3-7.3
			C63.8,68.6,62.2,68.9,60.7,68.5z"/>
		<path class="st0" d="M51.7,78.1l3.6-7.8c-1.1-0.3-2-0.9-2.8-1.8c0,0-0.1,0-0.1,0c-1.5,0.4-3.1,0.1-4.4-0.8l-3.3,7.3l5.1-1.9
			L51.7,78.1z"/>
		<path class="st0" d="M54.9,61.4c0.5,0.2,1.1,0.3,1.7,0.3s1.2-0.1,1.7-0.3c1.2-0.4,2.3-1.2,3-2.2c0.7-0.9,1.1-2.1,1.1-3.3
			c0-3.2-2.6-5.8-5.8-5.8c-3.2,0-5.8,2.6-5.8,5.8c0,1.2,0.4,2.4,1.1,3.3C52.6,60.3,53.7,61.1,54.9,61.4z"/>
		<path class="st0" d="M45.1,58.8c0,1,0.6,2.1,1.7,2.5c0.5,0.2,0.9,0.5,1.2,0.9c0.3,0.4,0.5,0.9,0.5,1.4c0,0.6,0.3,1.2,0.7,1.6
			c0.5,0.5,1.2,0.9,1.9,0.9c0.2,0,0.5,0,0.7-0.1c0.2-0.1,0.5-0.1,0.7-0.1c0.8,0,1.6,0.4,2.1,1c0.5,0.6,1.2,0.9,1.9,1
			c0.1,0,0.1,0,0.2,0c0.1,0,0.1,0,0.2,0c0.7-0.1,1.4-0.4,1.9-1c0.5-0.6,1.3-1,2.1-1c0.2,0,0.5,0,0.7,0.1c0.2,0.1,0.5,0.1,0.7,0.1
			c0.8,0,1.5-0.3,1.9-0.9c0.4-0.4,0.7-1,0.7-1.6c0-0.5,0.2-1,0.5-1.4c0.3-0.4,0.7-0.7,1.2-0.9c1.1-0.4,1.7-1.4,1.7-2.5
			c0-0.5-0.1-1-0.4-1.4c-0.3-0.4-0.4-0.9-0.4-1.4c0-0.5,0.1-1,0.4-1.4c0.3-0.4,0.4-0.9,0.4-1.4c0-1-0.6-2.1-1.7-2.5
			c-0.5-0.2-0.9-0.5-1.2-0.9c-0.3-0.4-0.5-0.9-0.5-1.4c-0.1-1.4-1.3-2.5-2.6-2.5c-0.2,0-0.5,0-0.7,0.1c-1,0.3-2.1-0.1-2.7-0.9
			c-0.5-0.7-1.3-1-2.1-1c-0.8,0-1.5,0.3-2.1,1c-0.5,0.6-1.3,1-2,1c-0.2,0-0.5,0-0.7-0.1c-0.2-0.1-0.5-0.1-0.7-0.1
			c-1.4,0-2.6,1.1-2.6,2.5c0,0.5-0.2,1-0.5,1.4c-0.3,0.4-0.7,0.7-1.2,0.9c-1.1,0.4-1.7,1.4-1.7,2.5c0,0.5,0.1,1,0.4,1.4
			c0.3,0.4,0.4,0.9,0.4,1.4c0,0.5-0.1,1-0.4,1.4C45.2,57.8,45.1,58.3,45.1,58.8z M48.3,54.8c0.1-1,0.4-1.9,0.9-2.7
			c0.4-0.7,0.8-1.3,1.4-1.9c0.7-0.7,1.5-1.3,2.3-1.7c0.7-0.3,1.4-0.6,2.2-0.7c0.5-0.1,1-0.1,1.4-0.1s1,0,1.4,0.1
			c0.8,0.1,1.5,0.4,2.2,0.7c0.9,0.4,1.6,1,2.3,1.7c0.5,0.6,1,1.2,1.4,1.9c0.4,0.8,0.8,1.8,0.9,2.7c0.1,0.4,0.1,0.8,0.1,1.2
			s0,0.8-0.1,1.2c-0.1,1-0.4,1.9-0.9,2.7c-0.4,0.7-0.8,1.3-1.4,1.9c0,0-0.1,0.1-0.1,0.1c-0.6,0.6-1.4,1.2-2.2,1.6
			c-0.7,0.3-1.4,0.6-2.1,0.7l0-0.1c0,0-0.1,0-0.1,0.1c-0.5,0.1-0.9,0.1-1.4,0.1c-0.5,0-1,0-1.4-0.1c0,0-0.1-0.1-0.1-0.1l0,0.1
			c-0.8-0.1-1.5-0.4-2.1-0.7c-0.8-0.4-1.6-0.9-2.2-1.6c0,0-0.1-0.1-0.1-0.1c-0.5-0.6-1-1.2-1.4-1.9c-0.5-0.8-0.8-1.8-0.9-2.7
			c-0.1-0.4-0.1-0.8-0.1-1.2C48.3,55.5,48.3,55.2,48.3,54.8z"/>
		<path class="st0" d="M63,84.5v-1.3H43.8H18.3h0H5.5v1.3c0,3.5,2.9,6.4,6.4,6.4c0,0,0,0,0,0v0h57.5C65.8,90.9,63,88,63,84.5z"/>
		<path class="st0" d="M84.7,13.6c0-2.2-1.6-4.1-3.8-4.4c-0.2,0-0.4-0.1-0.7-0.1c-2.5,0-4.5,2-4.5,4.5v3.2h8.9L84.7,13.6L84.7,13.6z
			"/>
	</g>
	<g>
		<path class="st1" d="M95.6,67.2l-5.8-5.9V42.9c0-0.1,0-0.2,0-0.3c-0.1-2.1-1.3-4.1-3.2-5.2L77,31.9V18.1h7.7
			c0.7,0,1.3-0.6,1.3-1.3v-3.2c0-2.8-2.1-5.3-4.9-5.7c-0.3,0-0.6-0.1-0.9-0.1h0H18.9c-3.2,0-5.8,2.6-5.8,5.8v44.1c0,0.1,0,0.2,0,0.2
			v24H5.5c-0.7,0-1.3,0.6-1.3,1.3v1.3c0,4.2,3.4,7.7,7.7,7.7h5.7h51.8c0,0,0,0,0,0c4.2,0,7.6-3.5,7.6-7.7v-9.4l11.5-11.5l5.3,5.4
			c0.5,0.5,1.3,0.5,1.8,0C96.1,68.5,96.1,67.7,95.6,67.2z M85.4,39.7c1.2,0.7,1.9,2,1.9,3.4v18.1L77,71.1l0,0V44.6
			c0-0.1,0-0.1,0-0.2c0-0.1,0-0.1,0-0.2c0-0.1,0-0.1-0.1-0.2c0-0.1,0-0.1-0.1-0.1s-0.1-0.1-0.1-0.1c0,0,0,0-0.1-0.1
			c0,0-0.1-0.1-0.1-0.1c0,0-0.1-0.1-0.1-0.1c0,0,0,0,0,0c-0.1,0-0.1-0.1-0.2-0.1l0,0l-7.3-4.3c-1.9-1.1-2.5-3.5-1.4-5.3
			c0.7-1.2,2-1.9,3.4-1.9c0.7,0,1.3,0.2,1.9,0.5l2,1.2l0,0l0.2,0.1L85.4,39.7z M83.4,13.6v1.9H77v-1.9c0-1.8,1.4-3.2,3.2-3.2
			c0.2,0,0.3,0,0.5,0C82.2,10.6,83.4,12,83.4,13.6z M14.4,89.6h-2.6c-2.8,0-5.1-2.3-5.1-5.1h6.4h2.6h46c0,2,0.7,3.8,2,5.1H14.4z
			 M74.5,84.5c0,2.8-2.3,5.1-5.1,5.1c0,0,0,0,0,0c-2.8,0-5.1-2.3-5.1-5.1v-1.3c0-0.7-0.6-1.3-1.3-1.3H15.7V57.7c0-0.1,0-0.2,0-0.2
			V13.6c0-1.8,1.4-3.2,3.2-3.2h56.5c-0.1,0.2-0.3,0.4-0.4,0.7c0,0,0,0.1-0.1,0.1c-0.2,0.5-0.4,1-0.5,1.5c0,0,0,0.1,0,0.1
			c0,0.3-0.1,0.5-0.1,0.8v3.2c0,0,0,0,0,0v13.6l-0.2-0.1c-1-0.6-2.1-0.9-3.2-0.9c-2.3,0-4.4,1.2-5.6,3.2c-1.8,3.1-0.8,7,2.3,8.8
			l2.9,1.7l3.8,2.2V74v2.8V84.5z"/>
		<circle class="st2" cx="88.6" cy="69.8" r="1.8"/>
		<path class="st2" d="M65.5,19.3c0-0.7-0.6-1.3-1.3-1.3h-7.7c-0.7,0-1.3,0.6-1.3,1.3s0.6,1.3,1.3,1.3h7.7
			C64.9,20.6,65.5,20,65.5,19.3z"/>
		<path class="st2" d="M23.4,20.6h28.1c0.7,0,1.3-0.6,1.3-1.3s-0.6-1.3-1.3-1.3H23.4c-0.7,0-1.3,0.6-1.3,1.3S22.7,20.6,23.4,20.6z"
			/>
		<path class="st2" d="M60.4,25.7h-37c-0.7,0-1.3,0.6-1.3,1.3s0.6,1.3,1.3,1.3h37c0.7,0,1.3-0.6,1.3-1.3S61.1,25.7,60.4,25.7z"/>
		<path class="st2" d="M59.1,33.4h-23c-0.7,0-1.3,0.6-1.3,1.3s0.6,1.3,1.3,1.3h23c0.7,0,1.3-0.6,1.3-1.3S59.8,33.4,59.1,33.4z"/>
		<path class="st2" d="M45.1,41.1H23.4c-0.7,0-1.3,0.6-1.3,1.3s0.6,1.3,1.3,1.3h21.7c0.7,0,1.3-0.6,1.3-1.3S45.8,41.1,45.1,41.1z"/>
		<path class="st2" d="M23.4,35.9H31c0.7,0,1.3-0.6,1.3-1.3s-0.6-1.3-1.3-1.3h-7.6c-0.7,0-1.3,0.6-1.3,1.3S22.7,35.9,23.4,35.9z"/>
		<path class="st2" d="M23.4,51.3h17.9c0.7,0,1.3-0.6,1.3-1.3c0-0.7-0.6-1.3-1.3-1.3H23.4c-0.7,0-1.3,0.6-1.3,1.3
			C22.1,50.7,22.7,51.3,23.4,51.3z"/>
		<path class="st2" d="M23.4,58.9h14c0.7,0,1.3-0.6,1.3-1.3s-0.6-1.3-1.3-1.3h-14c-0.7,0-1.3,0.6-1.3,1.3S22.7,58.9,23.4,58.9z"/>
		<path class="st2" d="M42.5,64.1H23.4c-0.7,0-1.3,0.6-1.3,1.3c0,0.7,0.6,1.3,1.3,1.3h19.1c0.7,0,1.3-0.6,1.3-1.3
			C43.8,64.6,43.2,64.1,42.5,64.1z"/>
		<path class="st2" d="M38.7,71.7H23.4c-0.7,0-1.3,0.6-1.3,1.3c0,0.7,0.6,1.3,1.3,1.3h15.3c0.7,0,1.3-0.6,1.3-1.3
			C40,72.3,39.4,71.7,38.7,71.7z"/>
		<path class="st2" d="M6.8,35.9c0.7,0,1.3-0.6,1.3-1.3V13.6c0-6,4.9-10.9,10.9-10.9h5.7c0.7,0,1.3-0.6,1.3-1.3s-0.6-1.3-1.3-1.3
			h-5.7c-7.4,0-13.4,6-13.4,13.4v21.1C5.5,35.4,6,35.9,6.8,35.9z"/>
		<circle class="st2" cx="28.5" cy="1.4" r="1.4"/>
		<circle class="st2" cx="50.2" cy="98.6" r="1.4"/>
		<path class="st2" d="M83.4,83.2c-0.7,0-1.3,0.6-1.3,1.3c0,7-5.7,12.8-12.8,12.8H54.1c-0.7,0-1.3,0.6-1.3,1.3
			c0,0.7,0.6,1.3,1.3,1.3h15.3c8.5,0,15.3-6.9,15.3-15.3C84.7,83.8,84.1,83.2,83.4,83.2z"/>
	</g>
</g>
</svg>
