<svg id="Layer_1" data-name="Layer 1" xmlns="http://www.w3.org/2000/svg" viewBox="0 0 100 100"><defs><style>.cls-1{fill:#4088da;}.cls-2{fill:#333;}</style></defs><title>icon_2</title><g id="online_tutorials" data-name="online tutorials"><path class="cls-1" d="M47.8,72.49v4.73a2.5,2.5,0,0,0,5,0V72.49Z"/><path class="cls-1" d="M49.75,43.47a20.85,20.85,0,0,0,.39-2.6c.09-1,.13-1.76.15-2.4s0-1.51,0-2.63,0-2,0-2.64-.06-1.43-.14-2.4a22.85,22.85,0,0,0-.38-2.59,4,4,0,0,0-1.21-2.16,3.67,3.67,0,0,0-2.17-1,111.36,111.36,0,0,0-11.7-.44A111.36,111.36,0,0,0,23,25a3.64,3.64,0,0,0-2.17,1,4.14,4.14,0,0,0-1.2,2.16,20.67,20.67,0,0,0-.39,2.59q-.13,1.45-.15,2.4c0,.63,0,1.51,0,2.64s0,2,0,2.63.06,1.44.15,2.4a23.19,23.19,0,0,0,.37,2.6,4.11,4.11,0,0,0,1.22,2.16,3.7,3.7,0,0,0,2.17,1,114.21,114.21,0,0,0,11.7.44,114.21,114.21,0,0,0,11.7-.44,3.7,3.7,0,0,0,2.16-1A4.16,4.16,0,0,0,49.75,43.47Zm-10-6.9L32.8,40.92a.78.78,0,0,1-.46.14,1,1,0,0,1-.42-.11.8.8,0,0,1-.44-.76V31.48a.81.81,0,0,1,.44-.76.82.82,0,0,1,.88,0l6.91,4.35a.79.79,0,0,1,.4.74A.77.77,0,0,1,39.71,36.57Z"/><path class="cls-2" d="M86.55,14.59H14.05a1.25,1.25,0,0,0-1.25,1.25V67.09a1.25,1.25,0,0,0,1.25,1.25h72.5a1.25,1.25,0,0,0,1.25-1.25V15.84A1.25,1.25,0,0,0,86.55,14.59ZM85.3,65.84h-70V17.09h70Z"/><path class="cls-2" d="M21.55,53.34h25a1.25,1.25,0,0,0,0-2.5h-25a1.25,1.25,0,1,0,0,2.5Z"/><path class="cls-2" d="M21.55,58.34h7.5a1.25,1.25,0,0,0,0-2.5h-7.5a1.25,1.25,0,1,0,0,2.5Z"/><path class="cls-2" d="M44.05,55.84h-10a1.25,1.25,0,0,0,0,2.5h10a1.25,1.25,0,0,0,0-2.5Z"/><circle class="cls-2" cx="82.8" cy="97.09" r="1.41"/><circle class="cls-2" cx="34.05" cy="3.34" r="1.41"/><circle class="cls-2" cx="75.3" cy="79.59" r="1.41"/><path class="cls-2" d="M79.05,95.84H15.3a1.25,1.25,0,1,0,0,2.5H79.05a1.25,1.25,0,0,0,0-2.5Z"/><path class="cls-2" d="M96.55,90.84h-25V87.09a1.25,1.25,0,0,0-1.25-1.25H63.49a11,11,0,0,1-1.62-5.77V73.34h28a2.91,2.91,0,0,0,2.9-2.91V12.31a2.72,2.72,0,0,0-2.72-2.72H10.53A2.73,2.73,0,0,0,7.8,12.31v58.3a2.74,2.74,0,0,0,2.73,2.73h28.1v6.73A11,11,0,0,1,37,85.84H30.3a1.25,1.25,0,0,0-1.25,1.25v3.75h-25a1.25,1.25,0,1,0,0,2.5h92.5a1.25,1.25,0,0,0,0-2.5ZM10.3,70.61V12.31a.22.22,0,0,1,.23-.22H90.08a.22.22,0,0,1,.22.22V70.43a.4.4,0,0,1-.4.41H10.53A.23.23,0,0,1,10.3,70.61Zm38.75,2.73h2.5v3.88a1.26,1.26,0,0,1-2.5,0Zm-7.92,6.74V73.34h5.42v3.88a3.75,3.75,0,0,0,7.5,0V73.34h5.32v6.74a13.6,13.6,0,0,0,1.28,5.76H39.85A13.6,13.6,0,0,0,41.13,80.08ZM31.55,90.84v-2.5h37.5v2.5Z"/><path class="cls-2" d="M60.3,57.35a1.25,1.25,0,0,0-1.25,1.25v3.34a1.25,1.25,0,0,0,2.5,0V58.6A1.25,1.25,0,0,0,60.3,57.35Z"/><path class="cls-2" d="M75.3,57.35a1.25,1.25,0,0,0-1.25,1.25v3.34a1.25,1.25,0,1,0,2.5,0V58.6A1.25,1.25,0,0,0,75.3,57.35Z"/><path class="cls-2" d="M54,63.11a1.24,1.24,0,0,0,1.21-1.29c0-.66-.08-6.58,4.17-9.54a8.52,8.52,0,0,1,2.24-1.11c.62,3.52,4.48,6.09,6.14,6.09h.06c1.66,0,5.53-2.57,6.14-6.09a8.74,8.74,0,0,1,2.25,1.11c4.25,3,4.18,8.88,4.16,9.54a1.25,1.25,0,0,0,1.21,1.29h0a1.25,1.25,0,0,0,1.25-1.21c.05-1.31,0-8-5.23-11.67A11.42,11.42,0,0,0,73,48.36a1.24,1.24,0,0,0-1.44,1.41,2.81,2.81,0,0,1,0,.45c0,2.44-3,4.45-3.75,4.55-.73-.1-3.76-2.11-3.76-4.55a2.81,2.81,0,0,1,0-.45,1.27,1.27,0,0,0-.37-1.08,1.23,1.23,0,0,0-1.08-.33A11.48,11.48,0,0,0,58,50.23c-5.21,3.64-5.27,10.36-5.22,11.67A1.24,1.24,0,0,0,54,63.11Z"/><path class="cls-2" d="M55.63,47.05a1.25,1.25,0,0,0,1.18.87,1.07,1.07,0,0,0,.39-.07,1.24,1.24,0,0,0,.8-1.57,38.68,38.68,0,0,1-1.4-8c-.29-5-.55-9.63,2.39-12.86,2.38-2.63,5.94-3.28,8.46-3.37H68c2.56.09,6.12.74,8.5,3.37,2.94,3.23,2.67,7.91,2.39,12.86a39.54,39.54,0,0,1-1.4,8,1.25,1.25,0,1,0,2.37.77,40.45,40.45,0,0,0,1.53-8.59c.3-5.25.61-10.67-3-14.68-3-3.28-7.22-4.09-10.31-4.19H67.4c-3,.1-7.29.91-10.26,4.19-3.65,4-3.34,9.43-3,14.68A40.19,40.19,0,0,0,55.63,47.05Z"/><path class="cls-2" d="M64.6,40.2A1.25,1.25,0,0,0,64.85,42a4.71,4.71,0,0,0,5.93,0,1.25,1.25,0,1,0-1.49-2,2.22,2.22,0,0,1-2.94,0A1.25,1.25,0,0,0,64.6,40.2Z"/><path class="cls-2" d="M70.85,35.26A.32.32,0,0,1,71,35.2h0a.32.32,0,0,1,.17.06,1.19,1.19,0,0,0,.81.31,1.25,1.25,0,0,0,.82-2.2A2.82,2.82,0,0,0,71,32.7a2.72,2.72,0,0,0-1.76.67,1.25,1.25,0,0,0,1.63,1.89Z"/><path class="cls-2" d="M59.26,31.5a1.26,1.26,0,0,0-1.4,1.08,15.77,15.77,0,0,0-.1,1.68A12.48,12.48,0,0,0,58,36.54a1.17,1.17,0,0,0,.05.2c.68,4,3.81,10.17,9.62,10.29h.23c5.9-.12,9-6.49,9.62-10.47s-.37-7.27-2.71-9.08a7.5,7.5,0,0,0-3.12-1.38l0-.14a1.25,1.25,0,0,0-2.45-.51,10.23,10.23,0,0,1-3.78,6,10.33,10.33,0,0,1-5.17,2c0-.18,0-.37.06-.55A1.26,1.26,0,0,0,59.26,31.5Zm11.59-3a5.07,5.07,0,0,1,2.4,1c2.27,1.76,2,5.28,1.77,6.72-.4,2.69-2.68,8.26-7.18,8.36h-.17c-4.51-.1-6.8-5.68-7.2-8.33l0-.13s0-.09,0-.13a13,13,0,0,0,2.8-.59,1.25,1.25,0,0,0,1.49-.1.32.32,0,0,1,.16-.06h0a.27.27,0,0,1,.16.06,1.23,1.23,0,0,0,.82.3,1.24,1.24,0,0,0,1-2l.14-.11A12.54,12.54,0,0,0,70.85,28.5Z"/><path class="cls-2" d="M99.05,48.34a1.25,1.25,0,0,0-1.25,1.25V70.43a7.91,7.91,0,0,1-7.9,7.91H79.05a1.25,1.25,0,1,0,0,2.5H89.9a10.42,10.42,0,0,0,10.4-10.41V49.59A1.25,1.25,0,0,0,99.05,48.34Z"/><path class="cls-2" d="M2.8,12.31a7.73,7.73,0,0,1,7.73-7.72H29.05a1.25,1.25,0,0,0,0-2.5H10.53A10.23,10.23,0,0,0,.3,12.31v6a1.25,1.25,0,0,0,2.5,0Z"/></g></svg>